<mxfile host="app.diagrams.net" modified="2023-11-17T12:56:54.631Z" agent="Mozilla/5.0 (X11; Linux x86_64; rv:109.0) Gecko/20100101 Firefox/118.0" etag="1m5XBR76_US8VLsswtbt" version="22.1.2" type="device">
  <diagram name="Page-1" id="443lTc8KsaYGnsk-Nlpa">
    <mxGraphModel dx="1114" dy="596" grid="1" gridSize="10" guides="1" tooltips="1" connect="1" arrows="1" fold="1" page="1" pageScale="1" pageWidth="850" pageHeight="1100" math="0" shadow="0">
      <root>
        <mxCell id="0" />
        <mxCell id="1" parent="0" />
        <mxCell id="k81bwFb3jEkahaWm8Jr0-32" value="Suspend.enter (fun ctx waker -&gt;&#xa;    match Broadcast.suspend b (fun () -&gt; waker (Ok ())) with&#xa;    | None -&gt; ()  &#xa;    | Some request -&gt;&#xa;      match Atomic.get t.state with&#xa;      | Resolved _ -&gt;&#xa;        if Broadcast.cancel request &#xa;        then waker (Ok ())&#xa;        else ()&#xa;      | Unresolved _ -&gt; ()&#xa;  );&#xa;" style="rounded=0;align=left;verticalAlign=top;fontFamily=Courier New;" vertex="1" parent="1">
          <mxGeometry x="200" y="280" width="460" height="170" as="geometry" />
        </mxCell>
        <mxCell id="k81bwFb3jEkahaWm8Jr0-34" value="let cancel (segment, cell) =&#xa;  match (Atomic.get cell : cell) with&#xa;  | Request _ as old -&gt;&#xa;    if Atomic.compare_and_set cell old Cancelled then (&#xa;      Cells.cancel_cell segment;&#xa;      true&#xa;    ) else false          &#xa;  | Resumed -&gt; false      &#xa;  | Cancelled -&gt; assert false&#xa;  | Empty -&gt; assert false&#xa;" style="rounded=0;align=left;verticalAlign=top;fontFamily=Courier New;" vertex="1" parent="1">
          <mxGeometry x="200" y="470" width="410" height="160" as="geometry" />
        </mxCell>
        <mxCell id="k81bwFb3jEkahaWm8Jr0-37" value="Cell was completed while trying to put in waker. Waker has been called by Broadcast.suspend" style="text;strokeColor=none;align=center;fillColor=none;html=1;verticalAlign=middle;whiteSpace=wrap;rounded=0;" vertex="1" parent="1">
          <mxGeometry x="690" y="310" width="180" height="30" as="geometry" />
        </mxCell>
        <mxCell id="k81bwFb3jEkahaWm8Jr0-38" value="Waker was put in cell. It will be called by resume_all." style="text;strokeColor=none;align=center;fillColor=none;html=1;verticalAlign=middle;whiteSpace=wrap;rounded=0;" vertex="1" parent="1">
          <mxGeometry x="690" y="460" width="180" height="30" as="geometry" />
        </mxCell>
        <mxCell id="k81bwFb3jEkahaWm8Jr0-39" value="" style="endArrow=classic;html=1;rounded=0;entryX=0;entryY=0.5;entryDx=0;entryDy=0;exitX=0.391;exitY=0.824;exitDx=0;exitDy=0;exitPerimeter=0;strokeColor=#FF0000;" edge="1" parent="1" source="k81bwFb3jEkahaWm8Jr0-32" target="k81bwFb3jEkahaWm8Jr0-38">
          <mxGeometry width="50" height="50" relative="1" as="geometry">
            <mxPoint x="770" y="530" as="sourcePoint" />
            <mxPoint x="820" y="480" as="targetPoint" />
          </mxGeometry>
        </mxCell>
        <mxCell id="k81bwFb3jEkahaWm8Jr0-40" value="" style="endArrow=classic;html=1;rounded=0;exitX=0.239;exitY=0.235;exitDx=0;exitDy=0;exitPerimeter=0;entryX=0;entryY=0.25;entryDx=0;entryDy=0;strokeColor=#FF0000;" edge="1" parent="1" source="k81bwFb3jEkahaWm8Jr0-32" target="k81bwFb3jEkahaWm8Jr0-37">
          <mxGeometry width="50" height="50" relative="1" as="geometry">
            <mxPoint x="650" y="530" as="sourcePoint" />
            <mxPoint x="690" y="440" as="targetPoint" />
          </mxGeometry>
        </mxCell>
        <mxCell id="k81bwFb3jEkahaWm8Jr0-41" value="Waker was put in cell. It has already been called by resume_all" style="text;strokeColor=none;align=center;fillColor=none;html=1;verticalAlign=middle;whiteSpace=wrap;rounded=0;" vertex="1" parent="1">
          <mxGeometry x="690" y="410" width="211" height="30" as="geometry" />
        </mxCell>
        <mxCell id="k81bwFb3jEkahaWm8Jr0-42" value="" style="endArrow=classic;html=1;rounded=0;entryX=0;entryY=0.5;entryDx=0;entryDy=0;exitX=0.217;exitY=0.735;exitDx=0;exitDy=0;exitPerimeter=0;strokeColor=#FF0000;" edge="1" parent="1" source="k81bwFb3jEkahaWm8Jr0-32" target="k81bwFb3jEkahaWm8Jr0-41">
          <mxGeometry width="50" height="50" relative="1" as="geometry">
            <mxPoint x="640" y="490" as="sourcePoint" />
            <mxPoint x="690" y="510" as="targetPoint" />
          </mxGeometry>
        </mxCell>
        <mxCell id="k81bwFb3jEkahaWm8Jr0-43" value="" style="endArrow=classic;html=1;rounded=0;exitX=0.413;exitY=0.647;exitDx=0;exitDy=0;exitPerimeter=0;entryX=0;entryY=0.5;entryDx=0;entryDy=0;strokeColor=#FF0000;" edge="1" parent="1" source="k81bwFb3jEkahaWm8Jr0-32" target="k81bwFb3jEkahaWm8Jr0-44">
          <mxGeometry width="50" height="50" relative="1" as="geometry">
            <mxPoint x="640" y="490" as="sourcePoint" />
            <mxPoint x="680" y="360" as="targetPoint" />
          </mxGeometry>
        </mxCell>
        <mxCell id="k81bwFb3jEkahaWm8Jr0-44" value="Cell has been cancelled so now we are responsible for calling waker." style="text;strokeColor=none;align=center;fillColor=none;html=1;verticalAlign=middle;whiteSpace=wrap;rounded=0;" vertex="1" parent="1">
          <mxGeometry x="690" y="360" width="211" height="30" as="geometry" />
        </mxCell>
        <mxCell id="k81bwFb3jEkahaWm8Jr0-45" value="If CAS succeeds, then resume_all cannot call the waker anymore. So we return true" style="text;strokeColor=none;align=center;fillColor=none;html=1;verticalAlign=middle;whiteSpace=wrap;rounded=0;" vertex="1" parent="1">
          <mxGeometry x="680" y="540" width="211" height="30" as="geometry" />
        </mxCell>
        <mxCell id="k81bwFb3jEkahaWm8Jr0-47" value="&lt;font style=&quot;font-size: 20px;&quot;&gt;✅&lt;/font&gt;" style="text;strokeColor=none;align=center;fillColor=none;html=1;verticalAlign=middle;whiteSpace=wrap;rounded=0;" vertex="1" parent="1">
          <mxGeometry x="901" y="310" width="60" height="30" as="geometry" />
        </mxCell>
        <mxCell id="k81bwFb3jEkahaWm8Jr0-48" value="&lt;font style=&quot;font-size: 20px;&quot;&gt;✅&lt;/font&gt;" style="text;strokeColor=none;align=center;fillColor=none;html=1;verticalAlign=middle;whiteSpace=wrap;rounded=0;" vertex="1" parent="1">
          <mxGeometry x="901" y="360" width="60" height="30" as="geometry" />
        </mxCell>
        <mxCell id="k81bwFb3jEkahaWm8Jr0-49" value="&lt;font style=&quot;font-size: 20px;&quot;&gt;✅&lt;/font&gt;" style="text;strokeColor=none;align=center;fillColor=none;html=1;verticalAlign=middle;whiteSpace=wrap;rounded=0;" vertex="1" parent="1">
          <mxGeometry x="901" y="410" width="60" height="30" as="geometry" />
        </mxCell>
        <mxCell id="k81bwFb3jEkahaWm8Jr0-50" value="&lt;font style=&quot;font-size: 20px;&quot;&gt;⏳&lt;/font&gt;" style="text;strokeColor=none;align=center;fillColor=none;html=1;verticalAlign=middle;whiteSpace=wrap;rounded=0;" vertex="1" parent="1">
          <mxGeometry x="901" y="470" width="60" height="30" as="geometry" />
        </mxCell>
        <mxCell id="k81bwFb3jEkahaWm8Jr0-51" value="If CAS fails, the cell state can only go to Resumed (" style="text;strokeColor=none;align=center;fillColor=none;html=1;verticalAlign=middle;whiteSpace=wrap;rounded=0;" vertex="1" parent="1">
          <mxGeometry x="680" y="590" width="211" height="30" as="geometry" />
        </mxCell>
        <mxCell id="k81bwFb3jEkahaWm8Jr0-52" value="" style="endArrow=classic;html=1;rounded=0;entryX=0;entryY=0.5;entryDx=0;entryDy=0;exitX=0.195;exitY=0.5;exitDx=0;exitDy=0;exitPerimeter=0;strokeColor=#FF0000;" edge="1" parent="1" source="k81bwFb3jEkahaWm8Jr0-34" target="k81bwFb3jEkahaWm8Jr0-45">
          <mxGeometry width="50" height="50" relative="1" as="geometry">
            <mxPoint x="640" y="540" as="sourcePoint" />
            <mxPoint x="690" y="490" as="targetPoint" />
          </mxGeometry>
        </mxCell>
        <mxCell id="k81bwFb3jEkahaWm8Jr0-53" value="" style="endArrow=classic;html=1;rounded=0;entryX=0;entryY=0.5;entryDx=0;entryDy=0;exitX=0.293;exitY=0.625;exitDx=0;exitDy=0;exitPerimeter=0;strokeColor=#FF0000;" edge="1" parent="1" source="k81bwFb3jEkahaWm8Jr0-34" target="k81bwFb3jEkahaWm8Jr0-51">
          <mxGeometry width="50" height="50" relative="1" as="geometry">
            <mxPoint x="640" y="630" as="sourcePoint" />
            <mxPoint x="690" y="580" as="targetPoint" />
          </mxGeometry>
        </mxCell>
      </root>
    </mxGraphModel>
  </diagram>
</mxfile>
